ffmpeg version 3.4.8-0ubuntu0.2 Copyright (c) 2000-2020 the FFmpeg developers
  built with gcc 7 (Ubuntu 7.5.0-3ubuntu1~18.04)
  configuration: --prefix=/usr --extra-version=0ubuntu0.2 --toolchain=hardened --libdir=/usr/lib/x86_64-linux-gnu --incdir=/usr/include/x86_64-linux-gnu --enable-gpl --disable-stripping --enable-avresample --enable-avisynth --enable-gnutls --enable-ladspa --enable-libass --enable-libbluray --enable-libbs2b --enable-libcaca --enable-libcdio --enable-libflite --enable-libfontconfig --enable-libfreetype --enable-libfribidi --enable-libgme --enable-libgsm --enable-libmp3lame --enable-libmysofa --enable-libopenjpeg --enable-libopenmpt --enable-libopus --enable-libpulse --enable-librubberband --enable-librsvg --enable-libshine --enable-libsnappy --enable-libsoxr --enable-libspeex --enable-libssh --enable-libtheora --enable-libtwolame --enable-libvorbis --enable-libvpx --enable-libwavpack --enable-libwebp --enable-libx265 --enable-libxml2 --enable-libxvid --enable-libzmq --enable-libzvbi --enable-omx --enable-openal --enable-opengl --enable-sdl2 --enable-libdc1394 --enable-libdrm --enable-libiec61883 --enable-chromaprint --enable-frei0r --enable-libopencv --enable-libx264 --enable-shared
  libavutil      55. 78.100 / 55. 78.100
  libavcodec     57.107.100 / 57.107.100
  libavformat    57. 83.100 / 57. 83.100
  libavdevice    57. 10.100 / 57. 10.100
  libavfilter     6.107.100 /  6.107.100
  libavresample   3.  7.  0 /  3.  7.  0
  libswscale      4.  8.100 /  4.  8.100
  libswresample   2.  9.100 /  2.  9.100
  libpostproc    54.  7.100 / 54.  7.100
[rawvideo @ 0x55d1ca1b2a20] Estimating duration from bitrate, this may be inaccurate
Input #0, rawvideo, from '../../SVC-Encoder-20220109T061506Z-001/SVC-Encoder/Dataset/RollerCoaster/ERP_8x8/tile_yuv/Tile_58_480x240.yuv':
  Duration: 00:00:10.00, start: 0.000000, bitrate: 41472 kb/s
    Stream #0:0: Video: rawvideo (I420 / 0x30323449), yuv420p, 480x240, 41472 kb/s, 30 tbr, 30 tbn, 30 tbc
Stream mapping:
  Stream #0:0 -> #0:0 (rawvideo (native) -> h264 (libx264))
Press [q] to stop, [?] for help
[libx264 @ 0x55d1ca1bfc60] using cpu capabilities: MMX2 SSE2Fast LZCNT SSSE3 SSE4.2 AVX
[libx264 @ 0x55d1ca1bfc60] profile High, level 2.1
Output #0, rawvideo, to 'RollerCoaster_Tile_58_480x240_x264_QP_20.h264':
  Metadata:
    encoder         : Lavf57.83.100
    Stream #0:0: Video: h264 (libx264), yuv420p, 480x240, q=-1--1, 30 fps, 30 tbn, 30 tbc
    Metadata:
      encoder         : Lavc57.107.100 libx264
    Side data:
      cpb: bitrate max/min/avg: 0/0/0 buffer size: 0 vbv_delay: -1
frame=  163 fps=0.0 q=26.0 PSNR=Y:nan U:nan V:nan *:nan size=      83kB time=00:00:04.00 bitrate= 169.0kbits/s speed=7.92x    frame=  300 fps=298 q=26.0 LPSNR=Y:inf U:inf V:inf *:inf size=     181kB time=00:00:09.93 bitrate= 149.5kbits/s speed=9.85x    
video:181kB audio:0kB subtitle:0kB other streams:0kB global headers:0kB muxing overhead: 0.000000%
[libx264 @ 0x55d1ca1bfc60] frame I:2     Avg QP:18.50  size:  9755  PSNR Mean Y:50.60 U:52.87 V:49.48 Avg:50.68 Global:50.64
[libx264 @ 0x55d1ca1bfc60] frame P:77    Avg QP:19.28  size:  1437  PSNR Mean Y:49.05 U:52.00 V:49.08 Avg:49.43 Global:49.40
[libx264 @ 0x55d1ca1bfc60] frame B:221   Avg QP:25.40  size:   251  PSNR Mean Y:48.84 U:51.86 V:48.95 Avg:49.23 Global:49.18
[libx264 @ 0x55d1ca1bfc60] consecutive B-frames:  0.7%  2.7%  2.0% 94.7%
[libx264 @ 0x55d1ca1bfc60] mb I  I16..4: 28.2% 25.0% 46.8%
[libx264 @ 0x55d1ca1bfc60] mb P  I16..4:  4.9%  1.1%  0.6%  P16..4: 40.3% 11.7%  4.5%  0.0%  0.0%    skip:36.9%
[libx264 @ 0x55d1ca1bfc60] mb B  I16..4:  0.3%  0.0%  0.0%  B16..8: 32.8%  2.4%  0.1%  direct: 0.1%  skip:64.4%  L0:48.9% L1:49.2% BI: 1.9%
[libx264 @ 0x55d1ca1bfc60] 8x8 transform intra:17.5% inter:72.2%
[libx264 @ 0x55d1ca1bfc60] coded y,uvDC,uvAC intra: 20.0% 47.4% 18.0% inter: 5.1% 7.8% 0.3%
[libx264 @ 0x55d1ca1bfc60] i16 v,h,dc,p: 22% 61% 14%  3%
[libx264 @ 0x55d1ca1bfc60] i8 v,h,dc,ddl,ddr,vr,hd,vl,hu: 14% 26% 53%  0%  1%  0%  2%  0%  2%
[libx264 @ 0x55d1ca1bfc60] i4 v,h,dc,ddl,ddr,vr,hd,vl,hu:  7% 68% 15%  1%  2%  1%  3%  0%  3%
[libx264 @ 0x55d1ca1bfc60] i8c dc,h,v,p: 35% 56%  8%  1%
[libx264 @ 0x55d1ca1bfc60] Weighted P-Frames: Y:1.3% UV:0.0%
[libx264 @ 0x55d1ca1bfc60] ref P L0: 54.5%  7.6% 29.6%  8.3%  0.0%
[libx264 @ 0x55d1ca1bfc60] ref B L0: 70.3% 23.8%  6.0%
[libx264 @ 0x55d1ca1bfc60] ref B L1: 89.3% 10.7%
[libx264 @ 0x55d1ca1bfc60] PSNR Mean Y:48.904 U:51.904 V:48.986 Avg:49.290 Global:49.243 kb/s:148.46
